<svg width="128" height="128" viewBox="0 0 128 128" fill="none" xmlns="http://www.w3.org/2000/svg">
  <rect x="12" y="12" width="104" height="104" rx="28" fill="#1677FF"/>
  <path d="M64 30C67.3137 30 70 32.6863 70 36V58H92C95.3137 58 98 60.6863 98 64C98 67.3137 95.3137 70 92 70H70V92C70 95.3137 67.3137 98 64 98C60.6863 98 58 95.3137 58 92V70H36C32.6863 70 30 67.3137 30 64C30 60.6863 32.6863 58 36 58H58V36C58 32.6863 60.6863 30 64 30Z" fill="white"/>
  <path d="M28 104C38.5 92.5 51.5 86.75 64 86.75C76.5 86.75 89.5 92.5 100 104" stroke="#B3D8FF" stroke-width="6" stroke-linecap="round"/>
</svg>
